<svg width="52" height="50" viewBox="0 0 52 50" fill="none" xmlns="http://www.w3.org/2000/svg">
<g id="publicon/social/24px">
<path id="icon/social/publicon/social/24px" fill-rule="evenodd" clip-rule="evenodd" d="M26 4.16666C14.04 4.16666 4.33331 13.5 4.33331 25C4.33331 36.5 14.04 45.8333 26 45.8333C37.96 45.8333 47.6666 36.5 47.6666 25C47.6666 13.5 37.96 4.16666 26 4.16666ZM8.66665 25C8.66665 23.7292 8.83998 22.4792 9.12165 21.2917L19.4783 31.25V33.3333C19.4783 35.625 21.4283 37.5 23.8116 37.5V41.5208C15.2966 40.4792 8.66665 33.4792 8.66665 25ZM34.645 33.3333C36.595 33.3333 38.1983 34.5625 38.7616 36.25C41.5783 33.2917 43.3333 29.3333 43.3333 25C43.3333 18.0208 38.8266 12.0208 32.4783 9.56249V10.4167C32.4783 12.7083 30.5283 14.5833 28.145 14.5833H23.8116V18.75C23.8116 19.8958 22.8366 20.8333 21.645 20.8333H17.3116V25H30.3116C31.5033 25 32.4783 25.9375 32.4783 27.0833V33.3333H34.645Z" fill="#F2F2F2"/>
</g>
</svg>
