<svg width="52" height="50" viewBox="0 0 52 50" fill="none" xmlns="http://www.w3.org/2000/svg">
<g id="publicon/social/24px">
<path id="icon/social/publicon/social/24px" fill-rule="evenodd" clip-rule="evenodd" d="M26 4.16675C14.04 4.16675 4.33337 13.5001 4.33337 25.0001C4.33337 36.5001 14.04 45.8334 26 45.8334C37.96 45.8334 47.6667 36.5001 47.6667 25.0001C47.6667 13.5001 37.96 4.16675 26 4.16675ZM8.66671 25.0001C8.66671 23.7292 8.84004 22.4792 9.12171 21.2917L19.4784 31.2501V33.3334C19.4784 35.6251 21.4284 37.5001 23.8117 37.5001V41.5209C15.2967 40.4792 8.66671 33.4792 8.66671 25.0001ZM34.645 33.3334C36.595 33.3334 38.1984 34.5626 38.7617 36.2501C41.5784 33.2917 43.3334 29.3334 43.3334 25.0001C43.3334 18.0209 38.8267 12.0209 32.4784 9.56258V10.4167C32.4784 12.7084 30.5284 14.5834 28.145 14.5834H23.8117V18.7501C23.8117 19.8959 22.8367 20.8334 21.645 20.8334H17.3117V25.0001H30.3117C31.5034 25.0001 32.4784 25.9376 32.4784 27.0834V33.3334H34.645Z" fill="#F2F2F2"/>
</g>
</svg>
