<svg width="20" height="20" viewBox="0 0 20 20" fill="none" xmlns="http://www.w3.org/2000/svg">
<path fill-rule="evenodd" clip-rule="evenodd" d="M0 10C0 4.48 4.48 0 10 0C15.52 0 20 4.48 20 10C20 15.52 15.52 20 10 20C4.48 20 0 15.52 0 10ZM10.0001 14.5C8.12007 14.5 5.50007 15.38 5.07007 16.28C6.43007 17.36 8.14007 18 10.0001 18C11.8601 18 13.5701 17.36 14.9301 16.28C14.5101 15.38 11.8801 14.5 10.0001 14.5ZM16.36 14.83C14.93 13.09 11.46 12.5 10 12.5C8.54 12.5 5.07 13.09 3.64 14.83C2.62 13.49 2 11.82 2 9.99998C2 5.58998 5.59 1.99998 10 1.99998C14.41 1.99998 18 5.58998 18 9.99998C18 11.82 17.38 13.49 16.36 14.83ZM6.5 7.49995C6.5 5.55995 8.06 3.99995 10 3.99995C11.94 3.99995 13.5 5.55995 13.5 7.49995C13.5 9.43995 11.94 11 10 11C8.06 11 6.5 9.43995 6.5 7.49995Z" fill="#2F9AE0"/>
</svg>
