<svg width="506" height="25" viewBox="0 0 506 25" fill="none" xmlns="http://www.w3.org/2000/svg">
<g id="search_24px">
<path id="icon/action/search_24px" fill-rule="evenodd" clip-rule="evenodd" d="M496.965 14.255H497.755L502.745 19.255L501.255 20.745L496.255 15.755V14.965L495.985 14.685C494.845 15.665 493.365 16.255 491.755 16.255C488.165 16.255 485.255 13.345 485.255 9.755C485.255 6.165 488.165 3.255 491.755 3.255C495.345 3.255 498.255 6.165 498.255 9.755C498.255 11.365 497.665 12.845 496.685 13.985L496.965 14.255ZM487.255 9.755C487.255 12.245 489.265 14.255 491.755 14.255C494.245 14.255 496.255 12.245 496.255 9.755C496.255 7.26501 494.245 5.255 491.755 5.255C489.265 5.255 487.255 7.26501 487.255 9.755Z" fill="black" fill-opacity="0.54"/>
<g id="arrow_forward_24px">
<path id="icon/navigation/arrow_forward_24px" d="M10 8.33334L8.82504 9.50834L13.475 14.1667H3.33337V15.8333H13.475L8.82504 20.4917L10 21.6667L16.6667 15L10 8.33334Z" fill="black" fill-opacity="0.54"/>
</g>
</g>
</svg>
