<svg width="52" height="50" viewBox="0 0 52 50" fill="none" xmlns="http://www.w3.org/2000/svg">
<g id="publicon/social/24px">
<path id="icon/social/publicon/social/24px" fill-rule="evenodd" clip-rule="evenodd" d="M26 4.16667C14.04 4.16667 4.33337 13.5 4.33337 25C4.33337 36.5 14.04 45.8333 26 45.8333C37.96 45.8333 47.6667 36.5 47.6667 25C47.6667 13.5 37.96 4.16667 26 4.16667ZM8.66671 25C8.66671 23.7292 8.84004 22.4792 9.12171 21.2917L19.4784 31.25V33.3333C19.4784 35.625 21.4284 37.5 23.8117 37.5V41.5208C15.2967 40.4792 8.66671 33.4792 8.66671 25ZM34.645 33.3333C36.595 33.3333 38.1984 34.5625 38.7617 36.25C41.5784 33.2917 43.3334 29.3333 43.3334 25C43.3334 18.0208 38.8267 12.0208 32.4784 9.5625V10.4167C32.4784 12.7083 30.5284 14.5833 28.145 14.5833H23.8117V18.75C23.8117 19.8958 22.8367 20.8333 21.645 20.8333H17.3117V25H30.3117C31.5034 25 32.4784 25.9375 32.4784 27.0833V33.3333H34.645Z" fill="#F2F2F2"/>
</g>
</svg>
